<?xml version="1.0" encoding="UTF-8"?>
<svg version="1.1" viewBox="0 0 130 34" xmlns="http://www.w3.org/2000/svg">
<svg width="130" height="34" viewBox="0 0 130 34" xmlns="http://www.w3.org/2000/svg">
<path d="m6.224 9.8012c-0.45117-0.78244-0.18343-1.783 0.59803-2.2348l6.3672-3.681c0.7815-0.45176 1.7807-0.18367 2.2318 0.59881 0.4513 0.78248 0.1835 1.783-0.598 2.2348l-6.3672 3.681c-0.78144 0.4517-1.7807 0.1836-2.2318-0.59891z" fill="#37D5C7"/>
<path d="m10.721 29.87c-0.4511-0.7825-0.1835-1.783 0.598-2.2348l6.3673-3.6809c0.7814-0.4518 1.7806-0.1837 2.2318 0.5988s0.1835 1.783-0.598 2.2348l-6.3673 3.681c-0.7814 0.4517-1.7806 0.1836-2.2318-0.5989z" fill="#37D5C7"/>
<path d="m13.956 16.666c-0.4512-0.7825-0.1834-1.7831 0.598-2.2348l8.8434-5.1125c0.7815-0.45177 1.7806-0.18367 2.2318 0.59883 0.4512 0.78245 0.1835 1.783-0.598 2.2348l-8.8434 5.1125c-0.7814 0.4518-1.7807 0.1837-2.2318-0.5988z" fill="#37D5C7"/>
<path d="m0.8676 24.232c-0.45117-0.7824-0.18342-1.783 0.59803-2.2348l9.5509-5.5214c0.7814-0.4518 1.7807-0.1837 2.2318 0.5988 0.4512 0.7824 0.1835 1.783-0.598 2.2347l-9.5508 5.5215c-0.78145 0.4517-1.7807 0.1837-2.2319-0.5988z" fill="#37D5C7"/>
<path d="m15.396 10.166c-0.4513-0.78249-0.1835-1.783 0.598-2.2348l1.7686-1.0225c0.7815-0.45177 1.7808-0.18367 2.2319 0.59881 0.4512 0.78247 0.1834 1.783-0.598 2.2348l-1.7687 1.0225c-0.7815 0.4518-1.7807 0.1837-2.2318-0.5988z" fill="#37D5C7"/>
<path d="m20.625 24.144c-0.4512-0.7825-0.1834-1.783 0.598-2.2348l1.7687-1.0225c0.7815-0.4517 1.7807-0.1837 2.2318 0.5988 0.4513 0.7825 0.1835 1.7831-0.598 2.2349l-1.7686 1.0224c-0.7815 0.4518-1.7807 0.1837-2.2319-0.5988z" fill="#37D5C7"/>
<path d="m5.7948 27.051c-0.45117-0.7823-0.18343-1.7829 0.59803-2.2347l1.7687-1.0225c0.78145-0.4518 1.7807-0.1837 2.2319 0.5988 0.4512 0.7825 0.1834 1.7831-0.59805 2.2348l-1.7686 1.0225c-0.78144 0.4517-1.7807 0.1836-2.2318-0.5989z" fill="#37D5C7"/>
<path d="m0.91838 12.868c-0.45117-0.7824-0.18343-1.7829 0.59803-2.2347l1.7687-1.0225c0.78145-0.45177 1.7807-0.18367 2.2319 0.5988 0.45117 0.7825 0.18342 1.7831-0.59803 2.2348l-1.7687 1.0225c-0.78145 0.4517-1.7807 0.1836-2.2319-0.5989z" fill="#37D5C7"/>
<path d="m0.8925 18.55c-0.45117-0.7825-0.18343-1.783 0.59802-2.2348l10.966-6.3394c0.7815-0.45175 1.7806-0.1836 2.2319 0.59883 0.4511 0.7824 0.1834 1.783-0.598 2.2348l-10.966 6.3395c-0.78145 0.4517-1.7807 0.1836-2.2319-0.5989z" fill="#37D5C7"/>
<path d="m11.1 23.984c-0.4511-0.7825-0.1834-1.783 0.5981-2.2349l10.966-6.3394c0.7813-0.4517 1.7806-0.1836 2.2318 0.5989 0.4511 0.7824 0.1833 1.7829-0.598 2.2348l-10.966 6.3394c-0.7815 0.4517-1.7807 0.1836-2.2319-0.5988z" fill="#37D5C7"/>
<path d="m54.383 25.703c-1.358-0.8052-2.433-1.9148-3.22-3.3211l-0.0029-0.0051c-0.7692-1.4139-1.1476-3.0202-1.1476-4.8056 0-1.8005 0.3553-3.4047 1.0814-4.7978l0.0013-0.0025c0.7429-1.4057 1.7643-2.5178 3.0614-3.326 1.3056-0.81351 2.8024-1.2137 4.4747-1.2137 1.648 0 3.1045 0.38797 4.3507 1.1821 1.2588 0.76785 2.2307 1.8418 2.9116 3.21 0.6808 1.368 1.015 2.9155 1.015 4.631 0 0.4507-0.1423 0.8577-0.4525 1.1745l-9e-3 0.0092-0.0095 0.0087c-0.3124 0.2871-0.7046 0.4124-1.1317 0.4124h-11.984c0.1166 0.6902 0.3311 1.32 0.6408 1.8927 0.5173 0.9182 1.2123 1.6363 2.0893 2.162 0.8686 0.5206 1.8788 0.7878 3.0452 0.7878 0.689 0 1.3812-0.117 2.0782-0.3538 0.7254-0.2606 1.276-0.5717 1.6716-0.9206l0.0098-0.0087c0.3084-0.2577 0.6693-0.3932 1.0661-0.397 0.3922-0.025 0.7582 0.0793 1.0654 0.3303l0.0134 0.011 0.0126 0.0118c0.3362 0.317 0.554 0.7096 0.5595 1.1706 0.0271 0.4662-0.1671 0.8615-0.5143 1.1576-0.735 0.6364-1.6561 1.1587-2.7506 1.575l-0.0078 3e-3c-1.0998 0.3964-2.1686 0.5988-3.2039 0.5988-1.7484 0-3.3215-0.3864-4.706-1.1719l-8e-3 -0.0046zm6.9642-13.55c-0.7362-0.4887-1.6341-0.7442-2.7159-0.7442-1.1 0-2.043 0.2649-2.8465 0.7801-0.8098 0.5192-1.444 1.2407-1.9032 2.1778-0.2174 0.4541-0.3822 0.9444-0.4933 1.4724h10.239c-0.099-0.5749-0.2653-1.1093-0.4975-1.6052-0.4182-0.8927-1.0103-1.5808-1.778-2.0778l-0.0047-0.0031z" clip-rule="evenodd" fill="#213257" fill-rule="evenodd"/>
<path d="m73.665 9.1567 0.0038-0.00234c1.0709-0.63791 2.2529-0.9551 3.5352-0.9551 0.9863 0 1.811 0.14035 2.428 0.46798 0.3201 0.16999 0.5886 0.40467 0.7456 0.72518 0.1596 0.32585 0.175 0.68182 0.0921 1.0345l-0.0028 0.0121c-0.1033 0.3954-0.3092 0.7523-0.6769 0.9445-0.2915 0.1623-0.6282 0.208-0.9751 0.1828l-0.0028-2e-4c-0.2654-0.0209-0.5728-0.0419-0.9226-0.0629l-0.0072-4e-4 -0.0074-6e-4c-1.099-0.1003-2.0573 0.0218-2.8865 0.349l-0.0056 0.0022c-0.8092 0.3075-1.445 0.7809-1.9233 1.418-0.4474 0.6232-0.6791 1.3722-0.6791 2.2706v9.4788c0 0.4742-0.1314 0.9101-0.4525 1.2378-0.3211 0.3279-0.7479 0.4622-1.2122 0.4622-0.4644 0-0.8912-0.1343-1.2123-0.4622-0.3211-0.3277-0.4525-0.7636-0.4525-1.2378v-14.931c0-0.47414 0.1314-0.91005 0.4525-1.2379 0.3211-0.32782 0.7479-0.46209 1.2123-0.46209 0.4643 0 0.8911 0.13427 1.2122 0.46209 0.3211 0.32783 0.4525 0.76374 0.4525 1.2379v0.06c0.3902-0.37803 0.8185-0.70918 1.2846-0.99274z" fill="#213257"/>
<path d="m83.287 26.259-0.0156-0.0175c-0.3045-0.342-0.4366-0.7763-0.4366-1.2526v-7.7147c0-0.4741 0.1315-0.91 0.4525-1.2379 0.333-0.34 0.764-0.4937 1.2433-0.4937 0.4592 0 0.8708 0.1545 1.1816 0.4936 0.3376 0.3231 0.4832 0.758 0.4832 1.238v7.7147c0 0.4894-0.1505 0.9296-0.4836 1.2696-0.3158 0.3226-0.7285 0.4621-1.1812 0.4621-0.4665 0-0.8916-0.1348-1.2266-0.4458l-0.017-0.0158z" fill="#213257"/>
<path d="m114.84 25.669-6e-3 -3e-3c-1.334-0.8264-2.396-1.9448-3.18-3.3479l-3e-3 -0.0053c-0.769-1.4119-1.148-2.9966-1.148-4.7421 0-1.7679 0.39-3.3652 1.182-4.779l3e-3 -0.0052c0.807-1.4046 1.902-2.5122 3.279-3.3162 1.383-0.82926 2.938-1.2397 4.652-1.2397 1.712 0 3.257 0.4101 4.621 1.2405 1.377 0.80404 2.462 1.9121 3.248 3.3176 0.812 1.4121 1.224 3.0083 1.246 4.7757v7.456c0 0.4772-0.156 0.9035-0.484 1.2379l-8e-3 0.0083-9e-3 8e-3c-0.329 0.3061-0.741 0.4458-1.195 0.4458s-0.866-0.1397-1.196-0.4458l-8e-3 -8e-3 -8e-3 -0.0083c-0.327-0.3344-0.484-0.7607-0.484-1.2379v-0.5795c-0.497 0.5057-1.062 0.9471-1.691 1.3239l-2e-3 0.0014c-1.262 0.7456-2.693 1.1127-4.279 1.1127-1.672 0-3.187-0.4002-4.53-1.21zm7.726-2.7851 5e-3 -0.0025c0.876-0.5253 1.56-1.2423 2.055-2.1584l2e-3 -0.0031c0.516-0.935 0.777-1.9811 0.777-3.1492 0-1.191-0.262-2.2349-0.775-3.1453l-4e-3 -7e-3c-0.495-0.9161-1.179-1.6332-2.055-2.1585l-0.011-0.0065c-0.848-0.5383-1.823-0.813-2.941-0.813-1.097 0-2.075 0.2738-2.946 0.8154l-7e-3 0.0042c-0.878 0.5263-1.573 1.2455-2.091 2.1654-0.512 0.9104-0.773 1.9543-0.773 3.1453 0 1.1674 0.26 2.2127 0.774 3.1473 0.518 0.919 1.212 1.6376 2.09 2.1635 0.873 0.5229 1.852 0.7877 2.953 0.7877 1.121 0 2.099-0.2657 2.947-0.7853z" clip-rule="evenodd" fill="#213257" fill-rule="evenodd"/>
<path d="m39.053 25.609 9e-4 2e-3c0.1491 0.3294 0.351 0.611 0.6212 0.8102 0.2757 0.2034 0.5943 0.2998 0.9359 0.2998 0.3537 0 0.685-0.0917 0.9724-0.2926 0.2844-0.1986 0.4958-0.4834 0.6477-0.8194l6.7957-14.956c0.1836-0.3796 0.1958-0.78441 0.0486-1.1793-0.1485-0.4202-0.4344-0.73572-0.8278-0.93654l-0.0127-0.00651-0.0131-0.00573c-0.4003-0.17518-0.8198-0.18858-1.235-0.04964-0.4301 0.1287-0.7432 0.42393-0.9208 0.84319l-5.4471 12.211-5.5344-12.231-7e-3 -0.01334c-0.1962-0.37221-0.4897-0.64723-0.8739-0.7981-0.4107-0.16129-0.83-0.11939-1.2233 0.07967-0.3985 0.19136-0.7065 0.48781-0.8626 0.90227-0.152 0.40354-0.1341 0.81714 0.0433 1.2096l6.892 14.931z" fill="#213257"/>
<path d="m90.665 22.324c0.8077 1.4043 1.9019 2.5218 3.2771 3.3465l5e-3 0.0029c1.3836 0.8074 2.9372 1.2065 4.6493 1.2065 1.6907 0 3.2247-0.3994 4.5877-1.2073 1.377-0.8033 2.462-1.9005 3.251-3.2863 0.809-1.4084 1.233-2.9809 1.277-4.7069v-14.976c0-0.48404-0.149-0.92212-0.492-1.2461-0.326-0.32887-0.74-0.48562-1.204-0.48562s-0.878 0.15676-1.205 0.48564c-0.343 0.32394-0.491 0.76202-0.491 1.246v7.9692c-0.571-0.5768-1.236-1.065-1.99-1.4646-1.193-0.65401-2.524-0.97664-3.9821-0.97664-1.6743 0-3.1897 0.41159-4.5335 1.2432-1.3357 0.80561-2.3981 1.9143-3.1834 3.3178l-0.0028 0.0051c-0.7683 1.412-1.1477 2.9967-1.1477 4.7422 0 1.7678 0.3904 3.3653 1.1815 4.7791l0.0029 5e-3zm12.943-7.8977c0.513 0.9117 0.774 1.9454 0.774 3.1136 0 1.1909-0.262 2.2349-0.774 3.1453l-4e-3 7e-3c-0.497 0.9172-1.181 1.6463-2.061 2.1933-0.848 0.5192-1.8252 0.7846-2.9467 0.7846-1.0982 0-2.0773-0.2641-2.949-0.7857-0.8802-0.5478-1.5768-1.2788-2.0945-2.1992-0.5122-0.9104-0.7738-1.9544-0.7738-3.1453 0-1.1682 0.2608-2.2019 0.7738-3.1136l0.0021-0.0039c0.5182-0.9407 1.2135-1.6685 2.089-2.1933 0.8725-0.5229 1.8522-0.7878 2.9524-0.7878 1.1215 0 2.0997 0.2657 2.9477 0.7854l4e-3 0.0024c0.874 0.5238 1.558 1.2495 2.054 2.1864l6e-3 0.0108z" clip-rule="evenodd" fill="#213257" fill-rule="evenodd"/>
<path d="m83.287 13.631-0.0156-0.0175c-0.3045-0.3421-0.4365-0.7763-0.4365-1.2526v-1.8861c0-0.4742 0.1314-0.91006 0.4524-1.2379 0.3331-0.34006 0.764-0.4938 1.2434-0.4938 0.4592 0 0.8708 0.15458 1.1815 0.49361 0.3377 0.32314 0.4833 0.75798 0.4833 1.2381v1.8861c0 0.4894-0.1506 0.9296-0.4836 1.2696-0.3159 0.3226-0.7285 0.4621-1.1812 0.4621-0.4665 0-0.8917-0.1349-1.2266-0.4458l-0.0171-0.0158z" fill="#37D5C7"/>
</svg>
<style>@media (prefers-color-scheme: light) { :root { filter: none; } }</style>
</svg>
